<svg xmlns="http://www.w3.org/2000/svg" viewBox="0 0 993.28 335.6"><defs><style>.cls-1{fill:#638478;}.cls-2{fill:#9d6775;}.cls-3{fill:#ba8f9a;}.cls-4{fill:#849b93;}.cls-5{fill:#adbab5;}</style></defs><title>Asset 10</title><g id="Layer_2" data-name="Layer 2"><g id="Layer_1-2" data-name="Layer 1"><path class="cls-1" d="M390.2,264.28c-44.06-30-111.33-45.71-113.16-47.15-3.2-1.6,67.28,6.47,123.13,33.7,56.91,27.26,64.46,60.12,55.65,63.68C446.23,318.84,435,293.74,390.2,264.28Z"/><path class="cls-1" d="M632.6,278c-25.33-35.2-94.29-44.64-94.47-45.11-3.68-1.47,67.49-1.29,106.59,31.67,40.46,33.36,7.6,69.62-3,70.72C630,338.71,658.56,312.41,632.6,278Z"/><path class="cls-1" d="M453.81,189.76c-26.47,21.47-63.09,25.83-64.77,23.55-2.77-2.39,29.36-9.31,55.64-29.31,26.81-19.75,32-43.2,34.36-42C481.37,142.58,480.67,168.54,453.81,189.76Z"/><path class="cls-1" d="M617.23,173.07c-19.85,35.54-13.76,68.36-19.76,68.61-5.38.88-19-34.15,5.09-71.85,23.34-37.76,68.81-57.37,69.81-55.87C674.48,115.25,636.12,137.19,617.23,173.07Z"/><path class="cls-1" d="M778.63,193c-40,28.28-99.88,37.49-160.08,35.08-36.55-1.47-71.26-7.68-107.07-12.4,0,0-122.23-17.75-256,.79-49.3,6.83-138,23.94-233.24,72.75a4.1,4.1,0,0,0-.56.24c-.15.06-.3.1-.44.17-7.06,3.59-15,7.09-19.41,12.37-2.35,2.83-3,7,1.8,8.23l.15.05h.07l.08,0H4l.39.13.22,0c.1,0,.18.07.28.09a5.5,5.5,0,0,0,1.23.17,4.76,4.76,0,0,0,.84,0H7a14.78,14.78,0,0,1,2.83-.59c45.95-24.14,137.9-66.44,255.07-80.64,66.89-8.1,137.52-6.51,142.79-6.37,37.15,1,69.94,2.08,107.17,7.29,38.52,5.4,76,11.51,115.44,12.07,64.34.92,124.57-10.85,166.88-40.8C806.65,195.07,788,186.4,778.63,193Z"/><path class="cls-2" d="M928.35,19.66s8.43,66.12-18.19,109.55S851.61,189,832,176.91,812.36,129,839,85.57s89.37-65.91,89.37-65.91"/><path class="cls-2" d="M973.92,66s-23.6,62.34-67.49,88.19S826.68,179.5,815,159.64s5.2-51.51,49.09-77.35S973.92,66,973.92,66"/><path class="cls-3" d="M814.11,83C828.2,62.25,856,49.55,871.58,33.24A78.6,78.6,0,0,0,893.56,0c1.26,1.28,31.23,81.41-3.08,116.7-15.84,19-31.43,33.68-42.29,45.94-11.3,11.81-17.86,21.19-25.88,19.11C808.64,180,785.25,123.86,814.11,83Z"/><path class="cls-3" d="M876.54,102.51c35.9-33.68,115.48-2.28,116.74-1a78.63,78.63,0,0,0-33.63,21.38c-16.58,15.31-29.77,42.86-50.79,56.58-41.35,28.12-97.07,3.74-98.57-10-1.94-8,7.56-14.44,19.57-25.53C842.31,133.34,857.28,118,876.54,102.51Z"/><path class="cls-2" d="M954.37,39.75s-8.29,70.23-46.84,108.1-75.61,46.48-92.75,29-7.86-54.35,30.68-92.22S954.37,39.75,954.37,39.75"/><path class="cls-3" d="M955,39.11s-13.14,65.3-51.68,103.16-73.44,48.7-87.91,34S812.41,126.83,851,89,955,39.11,955,39.11"/><path class="cls-1" d="M801,152.25c-2.65-11.65-11.11-21.33-11.27-22.35-.38-1.1,11.1,4.93,18.3,16.44,7.4,11.66,3.86,23.13-.24,24.08C803.46,171.51,803.79,163.71,801,152.25Z"/><path class="cls-1" d="M837.19,190.64c-19.79-1.58-30.08,8.18-29.68,2.81-.15-4.7,14.85-19.12,36.15-12.08,21,6.67,32.59,28.06,31,27.57C873.61,209,857.27,191.77,837.19,190.64Z"/><path class="cls-1" d="M841.07,169.16c24.33-9,46.64-36.38,48.13-33,3.24,4.2-21.09,36.1-49.44,42.34-27.38,6.7-39,3-37.37,2.87C804.66,179.42,817.38,178.67,841.07,169.16Z"/><path class="cls-1" d="M816.08,146.44c6.2-25.71,35.69-46.74,39.78-43.3,3.42,1.9-21.22,21.16-30,42.45-9.31,20.71-10.65,32.42-12.57,34.68C813,182,809.52,171.25,816.08,146.44Z"/><path class="cls-4" d="M797.25,164.29c9.25-12.82,13.81-5.12,23.88,5.16S839.44,185,826.46,194s-30.22,13.15-36.46,6.6C783.57,194.28,788,177,797.25,164.29Z"/><path class="cls-5" d="M811.64,179.2c1.57-1.58,3.66-2.83,5.88-2.38a6.64,6.64,0,0,1,2.71,1.34,16.14,16.14,0,0,1,3.08,3.21,8.35,8.35,0,0,1,1.32,3.33,5.78,5.78,0,0,1,0,2.7c-.18.68-.73,2.34-3.38,4-7.34,4.67-16.13,7.34-18.16,4.65S805.49,185.39,811.64,179.2Z"/></g></g></svg>