<svg xmlns="http://www.w3.org/2000/svg" viewBox="0 0 720.08 335.6"><defs><style>.cls-1{fill:#638478;}.cls-2{fill:#9d6775;}.cls-3{fill:#ba8f9a;}.cls-4{fill:#849b93;}.cls-5{fill:#adbab5;}</style></defs><title>Asset 9</title><g id="Layer_2" data-name="Layer 2"><g id="Layer_1-2" data-name="Layer 1"><path class="cls-1" d="M256.92,264.28c-29-30-73.31-45.71-74.51-47.15-2.11-1.6,44.3,6.47,81.07,33.7C301,278.09,305.92,311,300.12,314.51,293.81,318.84,286.4,293.74,256.92,264.28Z"/><path class="cls-1" d="M416.51,278c-16.68-35.2-62.08-44.64-62.19-45.11-2.43-1.47,44.43-1.29,70.17,31.67,26.64,33.36,5,69.62-2,70.72C414.8,338.71,433.61,312.41,416.51,278Z"/><path class="cls-1" d="M298.79,189.76c-17.42,21.47-41.53,25.83-42.64,23.55-1.82-2.39,19.33-9.31,36.63-29.31,17.66-19.75,21.05-43.2,22.63-42C316.94,142.58,316.48,168.54,298.79,189.76Z"/><path class="cls-1" d="M406.4,173.07c-13.07,35.54-9.07,68.36-13,68.61-3.54.88-12.49-34.15,3.35-71.85,15.36-37.76,45.3-57.37,46-55.87C444.09,115.25,418.83,137.19,406.4,173.07Z"/><path class="cls-1" d="M512.66,193c-26.31,28.28-65.76,37.49-105.39,35.08-24.07-1.47-46.93-7.68-70.5-12.4,0,0-80.48-17.75-168.57.79-32.46,6.83-90.88,23.94-153.57,72.75a2.92,2.92,0,0,0-.37.24,2.75,2.75,0,0,0-.29.17c-4.64,3.59-9.9,7.09-12.78,12.37-1.55,2.83-2,7,1.19,8.23l.1.05h0l0,0h0l.26.13.14,0a1,1,0,0,0,.18.09,2.56,2.56,0,0,0,.82.17,2,2,0,0,0,.54,0h.07a7,7,0,0,1,1.87-.59c30.25-24.14,90.79-66.44,167.94-80.64,44-8.1,90.54-6.51,94-6.37,24.46,1,46.06,2.08,70.56,7.29,25.37,5.4,50,11.51,76,12.07,42.35.92,82-10.85,109.87-40.8C531.11,195.07,518.83,186.4,512.66,193Z"/><path class="cls-2" d="M655.15,19.66S663.58,85.78,637,129.21s-58.55,59.75-78.21,47.7-19.59-47.91,7-91.34,89.37-65.91,89.37-65.91"/><path class="cls-2" d="M700.72,66s-23.6,62.34-67.49,88.19-79.75,25.27-91.45,5.41,5.2-51.51,49.09-77.35S700.72,66,700.72,66"/><path class="cls-3" d="M540.91,83C555,62.25,582.78,49.55,598.38,33.24A78.69,78.69,0,0,0,620.37,0c1.25,1.28,31.23,81.41-3.09,116.7-15.84,19-31.43,33.68-42.29,45.94-11.3,11.81-17.86,21.19-25.88,19.11C535.44,180,512.06,123.86,540.91,83Z"/><path class="cls-3" d="M603.35,102.51c35.89-33.68,115.48-2.28,116.73-1a78.57,78.57,0,0,0-33.62,21.38c-16.59,15.31-29.78,42.86-50.8,56.58-41.35,28.12-97.07,3.74-98.57-10-1.94-8,7.56-14.44,19.57-25.53C569.11,133.34,584.08,118,603.35,102.51Z"/><path class="cls-2" d="M681.17,39.75s-8.29,70.23-46.84,108.1-75.6,46.48-92.74,29-7.87-54.35,30.67-92.22S681.17,39.75,681.17,39.75"/><path class="cls-3" d="M681.82,39.11s-13.14,65.3-51.68,103.16-73.44,48.7-87.9,34-3-49.41,35.52-87.28S681.82,39.11,681.82,39.11"/><path class="cls-1" d="M527.75,152.25c-2.65-11.65-11.11-21.33-11.27-22.35-.38-1.1,11.1,4.93,18.3,16.44,7.4,11.66,3.86,23.13-.24,24.08C530.26,171.51,530.59,163.71,527.75,152.25Z"/><path class="cls-1" d="M564,190.64c-19.79-1.58-30.07,8.18-29.68,2.81-.15-4.7,14.85-19.12,36.15-12.08,21,6.67,32.59,28.06,31,27.57C600.41,209,584.07,191.77,564,190.64Z"/><path class="cls-1" d="M567.87,169.16c24.34-9,46.64-36.38,48.13-33,3.24,4.2-21.09,36.1-49.44,42.34-27.38,6.7-39,3-37.37,2.87C531.46,179.42,544.18,178.67,567.87,169.16Z"/><path class="cls-1" d="M542.88,146.44c6.2-25.71,35.69-46.74,39.78-43.3,3.42,1.9-21.22,21.16-30,42.45C543.33,166.3,542,178,540.07,180.27,539.81,182,536.33,171.25,542.88,146.44Z"/><path class="cls-4" d="M524.05,164.29c9.25-12.82,13.81-5.12,23.88,5.16S566.24,185,553.26,194s-30.22,13.15-36.46,6.6C510.37,194.28,514.84,177,524.05,164.29Z"/><path class="cls-5" d="M538.44,179.2c1.57-1.58,3.66-2.83,5.88-2.38a6.68,6.68,0,0,1,2.72,1.34,16.38,16.38,0,0,1,3.07,3.21,8.21,8.21,0,0,1,1.32,3.33,5.78,5.78,0,0,1,0,2.7c-.18.68-.73,2.34-3.38,4-7.34,4.67-16.13,7.34-18.15,4.65S532.3,185.39,538.44,179.2Z"/></g></g></svg>