<svg id="Layer_1" data-name="Layer 1" xmlns="http://www.w3.org/2000/svg" viewBox="0 0 200 270.39"><defs><style>.cls-1{fill:#fff;}.cls-2,.cls-3{isolation:isolate;}.cls-3{font-size:169.29px;fill:#849b93;font-family:PlayfairDisplay-BoldItalic, Playfair Display;font-weight:700;font-style:italic;letter-spacing:0.03em;}.cls-4{fill:#ba8f9a;}</style></defs><title>le-logo</title><ellipse id="Ellipse_1" data-name="Ellipse 1" class="cls-1" cx="407.44" cy="517.98" rx="137.02" ry="97.42" transform="translate(-498.6 410.85) rotate(-76.54)"/><g id="e" class="cls-2"><text class="cls-3" transform="translate(113.3 176.46)">e</text></g><g id="l" class="cls-2"><g class="cls-2"><path class="cls-4" d="M378,606.27q0,7.07,5.93,7.06,8.73,0,16.93-22.29L406,577.5h5.36l-7.05,20.59q-5.36,15.81-15.52,22.43a39.46,39.46,0,0,1-22,6.63q-12.7,0-19.19-6.63T341.08,602a67.92,67.92,0,0,1,3.39-19.75L388.76,435a31.8,31.8,0,0,0,1.41-7.9q0-5.64-4.37-8.18T371,416.39l2-5.93a213.38,213.38,0,0,0,35-3.1,174.83,174.83,0,0,0,30.47-8.46L379.17,599.22A24.08,24.08,0,0,0,378,606.27Z" transform="translate(-307.44 -382.79)"/></g></g></svg>